<svg width="14" height="14" viewBox="0 0 14 14" fill="none" xmlns="http://www.w3.org/2000/svg">
<path d="M0.178711 6.99993C0.178711 6.64122 0.409287 6.34478 0.708444 6.29786L0.791611 6.29139L11.5656 6.29196L7.67326 1.81065C7.4334 1.53455 7.43256 1.08593 7.6714 0.80863C7.88852 0.556542 8.22897 0.532826 8.4693 0.73804L8.53817 0.806473L13.4822 6.49746C13.5138 6.53386 13.5413 6.57325 13.5646 6.61484C13.5712 6.62736 13.5779 6.64017 13.5843 6.65324C13.5901 6.66444 13.5954 6.67607 13.6004 6.68783C13.6073 6.70493 13.614 6.72261 13.6202 6.74065C13.6252 6.75455 13.6293 6.76808 13.6331 6.78171C13.6376 6.79861 13.642 6.81663 13.6458 6.83492C13.6486 6.84768 13.6508 6.85997 13.6528 6.87231C13.6555 6.89067 13.6578 6.90966 13.6595 6.92889C13.6609 6.94355 13.6618 6.95807 13.6622 6.97261C13.6624 6.98143 13.6625 6.99066 13.6625 6.99993L13.6622 7.02738C13.6617 7.04128 13.6609 7.05518 13.6597 7.06904L13.6625 6.99993C13.6625 7.04464 13.6589 7.08839 13.6521 7.1308C13.6505 7.14093 13.6486 7.15133 13.6465 7.16169C13.6421 7.18302 13.6371 7.20356 13.6313 7.22369C13.6285 7.2337 13.6252 7.24439 13.6216 7.255C13.6145 7.27632 13.6067 7.29664 13.5981 7.31644C13.5941 7.32575 13.5897 7.33549 13.585 7.34514C13.5774 7.36088 13.5695 7.37583 13.5611 7.39041C13.5552 7.40072 13.5487 7.41146 13.5419 7.42203L13.5366 7.4302C13.5201 7.45514 13.5022 7.47877 13.483 7.50094L13.4823 7.5016L8.5382 13.1935C8.29835 13.4697 7.91029 13.4687 7.67143 13.1915C7.45429 12.9394 7.43521 12.5457 7.61374 12.2688L7.67323 12.1894L11.5639 7.70904L0.791611 7.70847C0.453116 7.70847 0.178711 7.39125 0.178711 6.99993Z" fill="#941100"/>
</svg>
