<svg width="14" height="12" viewBox="0 0 14 12" fill="none" xmlns="http://www.w3.org/2000/svg">
<path d="M0.180664 5.99992C0.180664 5.68606 0.413901 5.42666 0.716509 5.38561L0.800636 5.37995L11.6989 5.38045L7.76169 1.45931C7.51906 1.21771 7.51821 0.825171 7.7598 0.582536C7.97943 0.361959 8.32382 0.341207 8.56691 0.520769L8.63657 0.580647L13.6377 5.56026C13.6697 5.59211 13.6974 5.62657 13.721 5.66297C13.7277 5.67393 13.7345 5.68513 13.7409 5.69657C13.7468 5.70637 13.7521 5.71654 13.7572 5.72683C13.7642 5.7418 13.771 5.75727 13.7772 5.77305C13.7823 5.78522 13.7865 5.79705 13.7903 5.80898C13.7949 5.82377 13.7993 5.83953 13.8031 5.85554C13.806 5.86671 13.8082 5.87746 13.8102 5.88826C13.8129 5.90432 13.8153 5.92094 13.817 5.93776C13.8184 5.95059 13.8193 5.9633 13.8198 5.97602C13.8199 5.98373 13.82 5.99181 13.82 5.99992L13.8197 6.02394C13.8193 6.03611 13.8184 6.04826 13.8172 6.06039L13.82 5.99992C13.82 6.03905 13.8164 6.07732 13.8095 6.11444C13.8079 6.1233 13.806 6.1324 13.8039 6.14146C13.7994 6.16012 13.7944 6.1781 13.7885 6.19572C13.7856 6.20447 13.7823 6.21382 13.7787 6.22311C13.7714 6.24176 13.7636 6.25955 13.7549 6.27687C13.7509 6.28501 13.7464 6.29354 13.7417 6.30198C13.7339 6.31575 13.7259 6.32884 13.7175 6.34159C13.7115 6.35062 13.7049 6.36001 13.6981 6.36926L13.6927 6.37641C13.676 6.39823 13.6579 6.41891 13.6385 6.43831L13.6377 6.43889L8.63661 11.4193C8.394 11.6609 8.00145 11.6601 7.75984 11.4175C7.54019 11.197 7.5209 10.8525 7.70148 10.6102L7.76166 10.5407L11.6973 6.62039L0.800636 6.61989C0.458235 6.61989 0.180664 6.34232 0.180664 5.99992Z" fill="white"/>
</svg>
