<svg width="87" height="23" viewBox="0 0 87 23" fill="none" xmlns="http://www.w3.org/2000/svg">
<path d="M9.67751 16.572V19.7039H0V4.2107H3.39411V16.572H9.67751ZM11.1765 9.19661H14.4385V19.7031H11.1765V9.19661ZM12.8079 3.97754C13.3096 3.97763 13.7907 4.17693 14.1455 4.53162C14.5004 4.88631 14.6998 5.36737 14.7001 5.86907C14.7001 6.91469 13.8524 7.75988 12.8075 7.75988C11.7626 7.75988 10.9163 6.91433 10.9163 5.86907C10.9166 5.36756 11.116 4.88666 11.4705 4.532C11.8251 4.17734 12.306 3.97792 12.8075 3.97754H12.8079ZM35.0295 9.19554H39.0234L34.7417 14.053L38.9342 19.7031H34.8388L31.3774 14.5128H31.3353V19.7031H28.0744V4.20962H31.3353V13.4694L35.0295 9.19554ZM16.243 9.20165H19.3741V10.6409H19.4173C19.8519 9.81441 20.9177 8.94511 22.5045 8.94511C25.8104 8.94511 26.4192 11.1195 26.4192 13.9458V19.7028H23.1575V14.5949C23.1575 13.3766 23.1352 11.8117 21.4606 11.8117C19.7648 11.8117 19.5047 13.1384 19.5047 14.5078V19.6999H16.2426V9.20165H16.243ZM45.8941 13.2294C45.9156 12.142 45.0672 11.2288 43.8921 11.2288C42.4575 11.2288 41.6742 12.2075 41.5882 13.2294H45.8941ZM48.6553 17.8818C47.6118 19.2084 45.8944 19.9701 44.1936 19.9701C40.9322 19.9701 38.3225 17.7943 38.3225 14.424C38.3225 11.0536 40.9322 8.88286 44.1936 8.88286C47.2405 8.88286 49.1518 11.0572 49.1518 14.424V15.4458H41.5842C41.8433 16.6854 42.7799 17.4896 44.0417 17.4896C45.1075 17.4896 45.8246 16.9498 46.3686 16.2061L48.6553 17.8818ZM55.9487 11.739C54.3187 11.739 53.3407 12.8271 53.3407 14.4132C53.3407 16.0021 54.3194 17.088 55.9487 17.088C57.5808 17.088 58.5598 16.0021 58.5598 14.4132C58.5594 12.8271 57.5811 11.739 55.9487 11.739ZM61.5617 19.6981H58.5602V18.3056H58.5177C58.0158 19.0666 56.7557 19.9586 55.2765 19.9586C52.144 19.9586 50.0787 17.6979 50.0787 14.5002C50.0787 11.5642 51.9051 8.86775 54.9059 8.86775C56.2552 8.86775 57.5163 9.23727 58.2522 10.2591H58.2946V4.20962H61.5581L61.5617 19.6981Z" fill="black"/>
<path d="M85.1963 0.957031H66.4476C65.548 0.957031 64.8237 1.6673 64.8237 2.54236V21.3703C64.8237 22.2464 65.5516 22.957 66.4476 22.957H85.1963C86.0937 22.957 86.8248 22.246 86.8248 21.3703V2.54236C86.8252 1.6673 86.094 0.957031 85.1963 0.957031Z" fill="#0177B5"/>
<path d="M68.0858 9.20492H71.3493V19.7042H68.0858V9.20492ZM69.7183 3.98584C70.2197 3.98632 70.7005 4.18578 71.055 4.54043C71.4095 4.89508 71.6088 5.37592 71.6091 5.87737C71.609 6.37895 71.4098 6.85998 71.0553 7.21478C70.7007 7.56959 70.2199 7.76915 69.7183 7.76963C69.2164 7.76963 68.7351 7.57028 68.3801 7.21542C68.0252 6.86056 67.8258 6.37926 67.8257 5.87737C67.826 5.37561 68.0255 4.89449 68.3804 4.53979C68.7353 4.18509 69.2165 3.98584 69.7183 3.98584ZM73.3956 9.20492H76.5252V10.6359H76.5684C77.0002 9.81048 78.0688 8.94009 79.6556 8.94009C82.9601 8.94009 83.5703 11.1148 83.5703 13.9415V19.7003H80.3101V14.5909C80.3101 13.3733 80.2878 11.8071 78.6143 11.8071C76.916 11.8071 76.6558 13.1333 76.6558 14.5028V19.6967H73.3959V9.19736L73.3956 9.20492Z" fill="white"/>
</svg>
