<?xml version="1.0" encoding="utf-8"?>
<!-- Generator: Adobe Illustrator 21.0.0, SVG Export Plug-In . SVG Version: 6.00 Build 0)  -->
<svg version="1.1" id="Layer_1" xmlns="http://www.w3.org/2000/svg" xmlns:xlink="http://www.w3.org/1999/xlink" x="0px" y="0px"
	 viewBox="0 0 87 22" style="enable-background:new 0 0 87 22;" xml:space="preserve">
<style type="text/css">
	.st0{fill:#7A7A7A;}
</style>
<g>
	<path class="st0" d="M22.5,8c-1.6,0-2.7,0.9-3.1,1.7h0V8.2h-3.1h0v10.5h3.3v-5.2c0-1.4,0.3-2.7,2-2.7c1.7,0,1.7,1.6,1.7,2.8v5.1
		h3.3V13C26.4,10.2,25.8,8,22.5,8z"/>
	<rect x="11.2" y="8.2" class="st0" width="3.3" height="10.5"/>
	<polygon class="st0" points="3.4,3.3 0,3.3 0,18.7 9.7,18.7 9.7,15.6 3.4,15.6 	"/>
	<path class="st0" d="M12.8,3L12.8,3c-0.5,0-1,0.2-1.3,0.6c-0.4,0.4-0.6,0.8-0.6,1.3c0,1,0.8,1.9,1.9,1.9s1.9-0.8,1.9-1.9
		c0-0.5-0.2-1-0.6-1.3C13.8,3.2,13.3,3,12.8,3z"/>
	<path class="st0" d="M58.3,3.3v6h0c-0.7-1-2-1.4-3.3-1.4c-3,0-4.8,2.7-4.8,5.6c0,3.2,2.1,5.5,5.2,5.5c1.5,0,2.7-0.9,3.2-1.7h0v1.4
		h3l0-15.5H58.3z M55.9,16.1c-1.6,0-2.6-1.1-2.6-2.7c0-1.6,1-2.7,2.6-2.7c1.6,0,2.6,1.1,2.6,2.7C58.6,15,57.6,16.1,55.9,16.1z"/>
	<polygon class="st0" points="39,8.2 35,8.2 31.3,12.5 31.3,3.3 28.1,3.3 28.1,18.7 31.3,18.7 31.3,13.6 31.4,13.6 34.8,18.7 
		38.9,18.7 34.7,13.1 	"/>
	<path class="st0" d="M44.2,7.9c-3.3,0-5.9,2.2-5.9,5.5c0,3.4,2.6,5.5,5.9,5.5c1.7,0,3.4-0.8,4.5-2.1l-2.3-1.7
		c-0.5,0.7-1.3,1.3-2.3,1.3c-1.3,0-2.2-0.8-2.5-2h7.6v-1C49.2,10.1,47.2,7.9,44.2,7.9z M41.6,12.3c0.1-1,0.9-2,2.3-2
		c1.2,0,2,0.9,2,2H41.6z"/>
	<path class="st0" d="M85.2,0H66.4c-0.9,0-1.6,0.7-1.6,1.6v18.8c0,0.9,0.7,1.6,1.6,1.6h18.7c0.9,0,1.6-0.7,1.6-1.6V1.6
		C86.8,0.7,86.1,0,85.2,0z M71.3,18.7h-3.3V8.2h3.3V18.7z M71.1,6.3c-0.4,0.4-0.8,0.6-1.3,0.6c-0.5,0-1-0.2-1.3-0.6
		c-0.4-0.4-0.6-0.8-0.6-1.3c0-0.5,0.2-1,0.6-1.3C68.7,3.2,69.2,3,69.7,3c0.5,0,1,0.2,1.3,0.6c0.4,0.4,0.6,0.8,0.6,1.3
		C71.6,5.4,71.4,5.9,71.1,6.3z M83.6,18.7h-3.3v-5.1c0-1.2,0-2.8-1.7-2.8c-1.7,0-2,1.3-2,2.7v5.2h-3.3V8.2h0l0,0v0h3.1v1.4h0
		C77,8.9,78.1,8,79.7,8c3.3,0,3.9,2.2,3.9,5V18.7z"/>
</g>
</svg>
